<?xml version="1.0" standalone="no"?>
        <!DOCTYPE svg PUBLIC "-//W3C//DTD SVG 1.1//EN" 
        "http://www.w3.org/Graphics/SVG/1.1/DTD/svg11.dtd"> <svg style="color: white" xmlns="http://www.w3.org/2000/svg" viewBox="0 0 24 24" fill="none"><path stroke="currentColor" stroke-linecap="round" stroke-linejoin="round" stroke-width="2" d="M3 8V6a2 2 0 0 1 2-2h14a2 2 0 0 1 2 2v2M3 8v6m0-6h6m12 0v4m0-4H9m-6 6v4a2 2 0 0 0 2 2h4m-6-6h6m0-6v6m0 0h4a2 2 0 0 0 2-2V8m-6 6v6m0 0h2m7-5v3m0 0v3m0-3h3m-3 0h-3" fill="white"></path><path fill="white" d="M3 6a2 2 0 0 1 2-2h14a2 2 0 0 1 2 2v2H3V6z"></path></svg> 